<svg width="733" height="260" xmlns="http://www.w3.org/2000/svg" xml:space="preserve" version="1.1">

 <g>
  <title>Layer 1</title>
  <g id="XMLID_3_">
   <g id="XMLID_12_">
    <g id="XMLID_13_">
     <path fill="#111111" d="m267.31001,0.50999c0.86,-0.17 1.71,-0.34 2.57,-0.51l-3.93,0c0.22,0.54 0.59,0.65 1.36,0.51z" class="st0" id="XMLID_46_"/>
    </g>
   </g>
  </g>
  <g id="svg_1">
   <g id="XMLID_103_">
    <g id="XMLID_115_">
     <polygon fill="#111111" points="116.5,67.28997802734375 164.8900146484375,67.28997802734375 144.66000366210938,47.05999755859375 113.70999145507812,47.05999755859375 114.86001586914062,55.4000244140625 64.54000854492188,55.4000244140625 62.760009765625,57.17999267578125 115.11001586914062,57.17999267578125 " class="st0" id="XMLID_170_"/>
     <polygon fill="#111111" points="113.05999755859375,42.30999755859375 139.89999389648438,42.30999755859375 108.77001953125,11.16998291015625 111.1300048828125,28.33001708984375 91.61001586914062,28.33001708984375 89.83001708984375,30.1099853515625 111.3800048828125,30.1099853515625 " class="st0" id="XMLID_169_"/>
     <polygon fill="#111111" points="122.24002075195312,142.25 206.52999877929688,142.25 223.19000244140625,125.5999755859375 219.6199951171875,122.02996826171875 124.04000854492188,122.02996826171875 124.52999877929688,125.5999755859375 123.75,131.25 0,131.25 1.7799987196922302,133.02996826171875 123.510009765625,133.02996826171875 " class="st0" id="XMLID_168_"/>
     <polygon fill="#111111" points="151.80001831054688,196.989990234375 114.70001220703125,196.989990234375 112.64999389648438,211.8599853515625 80.61001586914062,211.8599853515625 82.3900146484375,213.6400146484375 112.39999389648438,213.6400146484375 108.77001953125,240.02001953125 " class="st0" id="XMLID_167_"/>
     <polygon fill="#111111" points="115.35000610351562,192.22998046875 156.55999755859375,192.22998046875 176.79000854492188,172 118.1400146484375,172 116.58001708984375,183.29998779296875 52.050018310546875,183.29998779296875 53.83001708984375,185.09002685546875 116.33001708984375,185.09002685546875 " class="st0" id="XMLID_166_"/>
     <polygon fill="#111111" points="123.3900146484375,117.27001953125 214.86001586914062,117.27001953125 194.6300048828125,97.03997802734375 120.60000610351562,97.03997802734375 121.8699951171875,106.260009765625 13.680007934570312,106.260009765625 11.889999389648438,108.04998779296875 122.11001586914062,108.04998779296875 " class="st0" id="XMLID_165_"/>
     <polygon fill="#111111" points="118.79000854492188,167.239990234375 181.55001831054688,167.239990234375 201.77001953125,147.010009765625 121.58001708984375,147.010009765625 120.30999755859375,156.239990234375 24.980010986328125,156.239990234375 26.77001953125,158.02001953125 120.07000732421875,158.02001953125 " class="st0" id="XMLID_164_"/>
     <polygon fill="#111111" points="119.94000244140625,92.27996826171875 189.8699951171875,92.27996826171875 169.64999389648438,72.04998779296875 117.16000366210938,72.04998779296875 118.58999633789062,82.46002197265625 37.470001220703125,82.46002197265625 35.69000244140625,84.25 118.83001708984375,84.25 " class="st0" id="XMLID_163_"/>
     <path fill="#111111" d="m104.38001,54.34999c-2.79,-1.8 -5.53,-3.69 -8.32,-5.5c-2.2,-1.43 -3.37,-1.22 -4.85,0.97c-1.04,1.54 -2.08,3.09 -3.11,4.65l16.47,0c-0.06,-0.04 -0.12,-0.08 -0.19,-0.12z" class="st1" id="XMLID_159_"/>
     <path fill="#808080" d="m91.88001,81.53999l20.96,0l-3.23,-23.43l-23.91,0c-0.94,1.42 -1.88,2.85 -2.81,4.27c-1.44,2.21 -1.21,3.37 0.96,4.85c2.75,1.87 5.55,3.66 8.3,5.53c2.07,1.42 2.32,2.62 1.34,4.96c-0.54,1.27 -1.08,2.54 -1.61,3.82z" class="st1" id="XMLID_150_"/>
     <path fill="#808080" d="m88.17001,90.56999c-0.95,2.33 -2,2.99 -4.46,2.52c-3.34,-0.63 -6.68,-1.3 -10.01,-1.95c-2.02,-0.4 -3.35,0.35 -3.76,2.4c-0.78,3.92 -1.56,7.85 -2.31,11.79l44.67,0c0.73,-2.88 1.62,-5.71 2.65,-8.45l-1.61,-11.7l-22.97,0c-0.74,1.79 -1.47,3.59 -2.2,5.39z" class="st1" id="XMLID_145_"/>
     <path fill="#808080" d="m111.47001,108.96999l-44.51,0c-0.42,2.54 0.24,3.34 2.83,3.88c3.1,0.64 6.22,1.22 9.32,1.86c2.91,0.6 3.58,1.57 3.54,4.45c-0.05,3.72 -0.06,7.44 0,11.16l27.33,0c-0.3,-5.1 -0.13,-10.32 0.54,-15.6c0.25,-1.93 0.57,-3.85 0.95,-5.75z" class="st1" id="XMLID_142_"/>
     <path fill="#111111" d="m74.24001,160.40999c2.44,-0.47 4.87,-0.97 7.3,-1.46l-11.17,0c0.63,1.54 1.7,1.87 3.87,1.46z" class="st0" id="XMLID_131_"/>
     <path fill="#808080" d="m83.12001,189.14999c2.81,4.26 5.65,8.5 8.51,12.72c1.4,2.06 2.58,2.28 4.67,0.91c2.84,-1.87 5.66,-3.77 8.47,-5.7c1.6,-1.09 2.95,-1.02 4.29,0.04l1.53,-11.11l-28.12,0c-0.45,0.88 -0.21,1.83 0.65,3.14z" class="st1" id="XMLID_127_"/>
     <path fill="#808080" d="m92.25001,178.86999c-1.73,1.18 -3.47,2.34 -5.2,3.5l24.04,0l3.23,-23.43l-27.3,0c0.53,0.44 0.94,1.16 1.36,2.21c1.71,4.22 3.47,8.43 5.27,12.61c1.07,2.51 0.85,3.58 -1.4,5.11z" class="st1" id="XMLID_122_"/>
     <path fill="#808080" d="m79.25001,136.89999c-3.02,0.64 -6.06,1.22 -9.09,1.84c-3.02,0.62 -3.64,1.48 -3.06,4.5c0.78,4.03 1.58,8.04 2.4,12.06l45.31,0l0.17,-1.21c-2.38,-6.4 -3.98,-13.16 -4.71,-20.14l-27.67,0c-0.23,1.75 -1.1,2.48 -3.35,2.95z" class="st1" id="XMLID_117_"/>
    </g>
    <path fill="#808080" d="m316.03001,143.24999c-0.91,4.77 -1.86,9.55 -2.86,14.32c-0.56,2.72 -1.54,3.35 -4.26,2.82c-3.11,-0.59 -6.22,-1.25 -9.33,-1.84c-2.82,-0.56 -3.77,0.02 -4.8,2.6c-1.71,4.24 -3.48,8.45 -5.29,12.63c-1.05,2.47 -0.83,3.55 1.42,5.09c2.67,1.84 5.39,3.6 8.05,5.44c2.2,1.52 2.47,2.69 1.05,4.85c-2.79,4.26 -5.63,8.5 -8.5,12.71c-1.4,2.06 -2.6,2.28 -4.68,0.91c-2.84,-1.86 -5.66,-3.77 -8.47,-5.68c-1.84,-1.27 -3.38,-0.98 -4.92,0.61c-3.28,3.38 -6.66,6.66 -10.01,9.96c-1.81,1.79 -1.98,2.89 -0.56,5.09c1.81,2.79 3.7,5.53 5.51,8.3c1.37,2.11 1.15,3.33 -0.86,4.7c-4.24,2.84 -8.5,5.66 -12.76,8.45c-2.2,1.44 -3.33,1.2 -4.82,-1c-1.89,-2.74 -3.72,-5.53 -5.53,-8.3c-1.2,-1.84 -2.72,-2.28 -4.77,-1.4c-4.33,1.86 -8.72,3.6 -13.07,5.36c-2.3,0.93 -2.96,2.03 -2.5,4.5c0.61,3.26 1.3,6.51 1.91,9.79c0.44,2.45 -0.22,3.5 -2.62,3.99c-5.02,1 -10.01,2.01 -15.03,2.91c-2.6,0.49 -3.48,-0.17 -4.02,-2.84c-0.66,-3.18 -1.22,-6.37 -1.89,-9.55c-0.54,-2.57 -1.62,-3.31 -4.21,-3.28c-2.2,0 -4.43,0.02 -6.63,0c-2.23,0.02 -4.43,0 -6.66,0c-2.6,-0.02 -3.67,0.71 -4.19,3.28c-0.66,3.18 -1.25,6.37 -1.91,9.55c-0.54,2.67 -1.42,3.33 -4.02,2.84c-5.02,-0.91 -10.01,-1.91 -15.01,-2.91c-2.42,-0.49 -3.08,-1.54 -2.64,-3.99c0.61,-3.28 1.3,-6.54 1.91,-9.79c0.47,-2.47 -0.2,-3.57 -2.47,-4.5c-4.38,-1.76 -8.76,-3.5 -13.07,-5.36c-2.08,-0.88 -3.57,-0.44 -4.77,1.4c-1.84,2.77 -3.67,5.56 -5.53,8.3c-1.52,2.2 -2.62,2.45 -4.82,1c-1.2,-0.78 -2.4,-1.57 -3.6,-2.35l32.22,-32.22c10.5,4.92 22.21,7.66 34.57,7.66c45.15,0 81.72,-36.6 81.72,-81.75s-36.58,-81.75 -81.72,-81.75c-12.36,0 -24.12,2.74 -34.62,7.69l-32.2,-32.2c1.15,-0.76 2.3,-1.54 3.45,-2.3c1.74,-1.18 3.21,-0.78 4.36,0.93c1.89,2.82 3.77,5.66 5.68,8.47c1.47,2.11 2.62,2.35 4.95,1.37c4.26,-1.81 8.54,-3.6 12.83,-5.34c2.42,-1 3.06,-2.01 2.55,-4.68c-0.61,-3.18 -1.3,-6.37 -1.89,-9.55c-0.49,-2.62 0.12,-3.57 2.72,-4.11c4.92,-1.03 9.84,-2.01 14.79,-2.96c2.57,-0.51 3.57,0.17 4.11,2.72c0.64,3.11 1.22,6.22 1.86,9.33c0.59,2.91 1.54,3.6 4.43,3.57c2.33,-0.02 4.65,-0.05 6.98,-0.05c2.33,0 4.65,0.02 6.98,0.05c2.89,0.02 3.82,-0.66 4.41,-3.57c0.64,-3.11 1.22,-6.22 1.89,-9.33c0.54,-2.55 1.54,-3.23 4.11,-2.72c4.92,0.95 9.87,1.93 14.76,2.96c2.6,0.54 3.23,1.49 2.74,4.11c-0.61,3.18 -1.3,6.37 -1.89,9.55c-0.51,2.67 0.1,3.67 2.52,4.68c4.31,1.74 8.57,3.53 12.85,5.34c2.3,0.98 3.45,0.73 4.92,-1.37c1.93,-2.82 3.79,-5.66 5.7,-8.47c1.15,-1.71 2.6,-2.11 4.36,-0.93c4.38,2.91 8.76,5.8 13.1,8.79c1.93,1.32 2.13,2.52 0.83,4.5c-1.81,2.79 -3.72,5.51 -5.53,8.28c-1.54,2.33 -1.37,3.38 0.54,5.26c3.31,3.28 6.56,6.56 9.82,9.87c1.79,1.84 2.91,2.03 5.07,0.66c2.79,-1.81 5.53,-3.7 8.32,-5.51c2.2,-1.44 3.38,-1.22 4.85,0.98c2.79,4.16 5.58,8.35 8.32,12.56c1.44,2.2 1.2,3.35 -0.95,4.85c-2.74,1.86 -5.56,3.65 -8.3,5.53c-2.08,1.42 -2.33,2.62 -1.35,4.95c1.81,4.28 3.57,8.57 5.31,12.85c0.95,2.35 2.01,2.99 4.46,2.52c3.35,-0.64 6.68,-1.3 10.01,-1.96c2.03,-0.39 3.35,0.37 3.77,2.42c1,5.07 2.03,10.16 2.94,15.25c0.49,2.67 -0.15,3.5 -2.79,4.04c-3.11,0.66 -6.22,1.22 -9.33,1.86c-2.91,0.61 -3.57,1.57 -3.55,4.46c0.07,4.41 0.07,8.81 -0.02,13.2c-0.05,2.96 0.61,3.94 3.43,4.53c3.04,0.64 6.07,1.22 9.11,1.86c3,0.62 3.62,1.48 3.03,4.51z" class="st1" id="XMLID_111_"/>
   </g>
   <g id="svg_2">
    <path id="svg_3" fill="#111111" d="m520.84001,123.33999c2.43,1.02 4.31,1.7 6.09,2.58c7.4,3.65 11.2,9.99 13.25,17.69c1.85,6.97 2.07,14.08 2.15,21.22c0.14,12.66 0.08,25.32 0.5,37.96c0.14,4.11 1.51,8.18 2.33,12.26c0,0 0,0.01 0,0.01c0.19,0.95 -0.47,1.89 -1.44,1.93c-0.05,0 -0.11,0 -0.16,0c-9.44,0.02 -18.88,-0.01 -28.33,0.03c-1.54,0.01 -2.28,-0.48 -2.87,-2.03c-2.15,-5.58 -2.01,-11.41 -2.09,-17.18c-0.21,-13.84 -0.12,-27.69 -0.35,-41.54c-0.07,-3.97 -0.97,-7.85 -3.13,-11.38c-1.82,-2.98 -4.56,-4.46 -7.69,-5.39c-6.15,-1.83 -12.48,-1.26 -18.76,-1.24c-0.46,0 -1.1,0.81 -1.31,1.38c-0.23,0.61 -0.06,1.38 -0.06,2.08c0,24.2 -0.03,48.4 0.04,72.6c0,1.53 -1.24,2.76 -2.77,2.74c-8.94,-0.1 -17.87,-0.11 -26.81,0c-2.17,0.03 -2.67,-0.69 -2.67,-2.77c0.05,-59.45 0.04,-118.9 -0.01,-178.35c0,-2.01 0.57,-2.63 2.6,-2.61c17.2,0.16 34.41,0.07 51.61,0.39c8.24,0.15 16.2,2.01 23.63,5.86c6.37,3.3 10.64,8.44 13.54,14.8c2,4.38 3.58,11.96 3.65,16.78c0.12,7.6 0.17,15.21 -0.14,22.79c-0.26,6.26 -2.28,12.13 -5.57,17.45c-2.72,4.4 -6.71,7.93 -11.47,9.98c-1.14,0.49 -2.14,1.1 -3.76,1.96zm-41.89,-37.59c0,8.04 0.04,16.08 -0.03,24.12c-0.02,1.67 0.53,2.19 2.16,2.15c4.26,-0.12 8.53,0 12.79,-0.16c8.87,-0.34 14.56,-5 15.4,-13.78c0.75,-7.9 0.92,-15.95 0.33,-23.85c-0.75,-10.02 -5.89,-14.27 -15.97,-14.54c-4.19,-0.11 -8.39,0.03 -12.58,-0.06c-1.69,-0.04 -2.14,0.61 -2.13,2.22c0.06,7.95 0.02,15.92 0.03,23.9z" class="st0"/>
    <path id="svg_4" fill="#111111" d="m431.32001,216.86999c-1.13,0.06 -1.95,0.14 -2.78,0.14c-8.95,0.01 -17.91,-0.06 -26.86,0.06c-2.05,0.03 -2.78,-0.67 -3.09,-2.64c-1.56,-10.16 -3.26,-20.29 -4.88,-30.44c-0.46,-2.91 -0.42,-2.92 -3.4,-2.92c-10.42,0 -20.84,0.03 -31.26,-0.04c-1.66,-0.01 -2.32,0.48 -2.58,2.14c-1.64,10.36 -3.44,20.69 -5.01,31.06c-0.34,2.21 -1.15,2.87 -3.33,2.84c-8.18,-0.12 -16.37,-0.04 -24.55,-0.05c-2.49,0 -2.59,-0.26 -2.14,-2.68c1.54,-8.23 3,-16.47 4.5,-24.71c1.44,-7.89 2.9,-15.79 4.33,-23.68c1.93,-10.65 3.82,-21.3 5.76,-31.95c1.61,-8.87 3.27,-17.72 4.89,-26.59c3.29,-18.02 6.57,-36.03 9.85,-54.05c1.09,-5.98 2.25,-11.96 3.27,-17.95c0.27,-1.6 0.99,-2.06 2.51,-2.05c13.15,0.04 26.3,0.04 39.45,0c1.49,0 2.11,0.56 2.37,1.99c3.11,17.27 6.25,34.53 9.4,51.8c2.41,13.2 4.88,26.39 7.28,39.59c2.13,11.75 4.18,23.51 6.31,35.25c2.36,12.98 4.78,25.94 7.15,38.91c0.94,5.19 1.83,10.4 2.81,15.97zm-56.08,-150.36c-0.26,-0.01 -0.52,-0.02 -0.78,-0.03c-4.63,29.79 -9.26,59.58 -13.91,89.48c9.94,0 19.32,0 28.95,0c-4.78,-29.97 -9.52,-59.71 -14.26,-89.45z" class="st0"/>
    <path id="svg_5" fill="#111111" d="m699.33001,138.56999c0,25.18 0,50.35 0,75.53c0,2.91 -0.01,2.92 -2.85,2.92c-8.88,0 -17.76,-0.07 -26.64,0.03c-2.11,0.02 -2.73,-0.6 -2.72,-2.74c0.06,-50.42 0.04,-100.85 0.04,-151.27c0,-3.39 0,-3.4 -3.42,-3.4c-9.23,0 -18.46,-0.05 -27.69,0.04c-2,0.02 -2.65,-0.54 -2.61,-2.59c0.12,-7.13 0.11,-14.27 0.01,-21.4c-0.02,-1.87 0.58,-2.37 2.4,-2.37c31.54,0.05 63.08,0.06 94.62,0c1.96,0 2.5,0.61 2.48,2.51c-0.09,7.13 -0.11,14.27 0.01,21.4c0.03,2.03 -0.71,2.45 -2.54,2.43c-9.51,-0.07 -19.02,0.01 -28.53,-0.08c-2.01,-0.02 -2.6,0.57 -2.6,2.6c0.06,25.48 0.03,50.94 0.04,76.39z" class="st0"/>
    <path id="svg_6" fill="#111111" d="m618.73001,108.30999c0,23.36 0.18,46.72 -0.08,70.08c-0.11,10.39 -3.2,19.97 -10.54,27.76c-3.62,3.84 -8.08,6.42 -13,8.19c-9.24,3.32 -18.85,3.83 -28.55,3.39c-2.51,-0.11 -5.02,-0.35 -7.53,-0.5c-1.29,-0.08 -1.81,-0.7 -1.81,-2.02c0.04,-7.48 0.05,-14.97 -0.01,-22.45c-0.01,-1.72 0.76,-1.94 2.23,-1.74c5.21,0.72 10.41,1.08 15.63,-0.19c6.75,-1.64 10.93,-6.34 11.41,-13.24c0.19,-2.72 0.29,-5.45 0.29,-8.17c0.02,-44.2 0.01,-88.4 0.01,-132.61c0,-3.4 0,-3.41 3.44,-3.42c8.53,-0.01 17.07,-0.01 25.6,-0.01c3.02,0 3.04,0.01 3.04,2.97c0,23.99 0,47.98 0,71.97c-0.04,-0.01 -0.09,-0.01 -0.13,-0.01z" class="st0"/>
   </g>
  </g>
 </g>
</svg>